<svg xmlns="http://www.w3.org/2000/svg" version="1.1" xmlns:xlink="http://www.w3.org/1999/xlink" xmlns:svgjs="http://svgjs.dev/svgjs" width="2000" height="2569" viewBox="0 0 2000 2569"><g transform="matrix(1,0,0,1,-2.8612594530293336,-4.143548387096871)"><svg viewBox="0 0 193 248" data-background-color="#ececea" preserveAspectRatio="xMidYMid meet" height="2569" width="2000" xmlns="http://www.w3.org/2000/svg" xmlns:xlink="http://www.w3.org/1999/xlink"><g id="tight-bounds" transform="matrix(1,0,0,1,0.27611153721733217,0.4000000000000057)"><svg viewBox="0 0 192.44777692556536 247.2" height="247.2" width="192.44777692556536"><g><svg viewBox="0 0 395.52 508.0471469297164" height="247.2" width="192.44777692556536"><g transform="matrix(1,0,0,1,0,365.8030038964242)"><svg viewBox="0 0 395.52 142.2441430332922" height="142.2441430332922" width="395.52"><g id="textblocktransform"><svg viewBox="0 0 395.52 142.2441430332922" height="142.2441430332922" width="395.52" id="textblock"><g><svg viewBox="0 0 395.52 142.2441430332922" height="142.2441430332922" width="395.52"><g transform="matrix(1,0,0,1,0,0)"><svg width="395.52" viewBox="0.75 -43.35 121.64 43.75" height="142.2441430332922" data-palette-color="#009b7e"><path d="M9.1 0L0.75 0 4.9-42.95 19.45-42.95 23.55 0 15.4 0 14.8-6.95 9.6-6.95 9.1 0ZM11.85-35.65L10.25-13.8 14.15-13.8 12.25-35.65 11.85-35.65ZM38.45 0L29.85 0 29.85-34.7 24.75-34.7 24.75-42.95 43.55-42.95 43.55-34.7 38.45-34.7 38.45 0ZM63.7 0L45.95 0 45.95-42.95 63.15-42.95 63.15-34.65 54.7-34.65 54.7-26.3 62.8-26.3 62.8-18.2 54.7-18.2 54.7-8.35 63.7-8.35 63.7 0ZM74.94 0L66.54 0 66.54-42.95 75.39-42.95 79.34-22.4 79.34-42.95 87.64-42.95 87.64 0 79.24 0 74.94-21.5 74.94 0ZM101.64 0.4Q95.79 0.4 93.19-2.5 90.59-5.4 90.59-11.85L90.59-11.85 90.59-16.05 99.04-16.05 99.04-10.7Q99.04-7.5 101.09-7.5L101.09-7.5Q102.24-7.5 102.69-8.18 103.14-8.85 103.14-10.45L103.14-10.45Q103.14-12.55 102.64-13.93 102.14-15.3 101.37-16.23 100.59-17.15 98.59-19.1L98.59-19.1 94.89-22.8Q90.59-27 90.59-32.1L90.59-32.1Q90.59-37.6 93.12-40.48 95.64-43.35 100.49-43.35L100.49-43.35Q106.29-43.35 108.84-40.28 111.39-37.2 111.39-30.65L111.39-30.65 102.64-30.65 102.59-33.6Q102.59-34.45 102.12-34.95 101.64-35.45 100.79-35.45L100.79-35.45Q99.79-35.45 99.29-34.9 98.79-34.35 98.79-33.4L98.79-33.4Q98.79-31.3 101.19-29.05L101.19-29.05 106.19-24.25Q107.94-22.55 109.09-21.03 110.24-19.5 110.94-17.43 111.64-15.35 111.64-12.5L111.64-12.5Q111.64-6.15 109.32-2.88 106.99 0.4 101.64 0.4L101.64 0.4ZM122.39 0L114.09 0 114.09-42.95 122.39-42.95 122.39 0Z" opacity="1" transform="matrix(1,0,0,1,0,0)" fill="#009b7e" class="wordmark-text-0" data-fill-palette-color="primary" id="text-0"></path></svg></g></svg></g></svg></g></svg></g><g transform="matrix(1,0,0,1,31.648712207151647,0)"><svg viewBox="0 0 332.2225755856967 332.2225755856967" height="332.2225755856967" width="332.2225755856967"><g><svg xmlns="http://www.w3.org/2000/svg" xmlns:xlink="http://www.w3.org/1999/xlink" version="1.1" x="0" y="0" viewBox="7.261 6.964 75.477 75.477" enable-background="new 0 0 90 90" xml:space="preserve" height="332.2225755856967" width="332.2225755856967" class="icon-icon-0" data-fill-palette-color="accent" id="icon-0"><g fill="#ffbf5e" data-fill-palette-color="accent"><polygon points="43.583,37.298 32.386,9.106 29.752,10.152 41.15,38.849 43.583,41.282  " fill="#ffbf5e" data-fill-palette-color="accent"></polygon><polygon points="46.418,52.112 57.613,80.299 60.247,79.252 48.85,50.556 46.418,48.125  " fill="#ffbf5e" data-fill-palette-color="accent"></polygon><polygon points="37.596,46.119 9.403,57.317 10.45,59.951 39.146,48.554 41.58,46.119  " fill="#ffbf5e" data-fill-palette-color="accent"></polygon><polygon points="52.409,43.286 80.598,32.09 79.551,29.455 50.855,40.853 48.422,43.286  " fill="#ffbf5e" data-fill-palette-color="accent"></polygon><polygon points="38.762,40.468 10.91,28.452 9.788,31.053 38.139,43.286 41.579,43.286  " fill="#ffbf5e" data-fill-palette-color="accent"></polygon><polygon points="51.239,48.938 79.089,60.954 80.212,58.352 51.861,46.12 48.421,46.12  " fill="#ffbf5e" data-fill-palette-color="accent"></polygon><polygon points="49.236,38.463 61.252,10.613 58.649,9.49 46.418,37.841 46.418,41.281  " fill="#ffbf5e" data-fill-palette-color="accent"></polygon><polygon points="40.765,50.943 28.75,78.793 31.352,79.916 43.583,51.565 43.583,48.125  " fill="#ffbf5e" data-fill-palette-color="accent"></polygon><polygon points="48.85,50.556 70.683,72.39 72.687,70.386 51.239,48.938 47.579,47.359  " fill="#ffbf5e" data-fill-palette-color="accent"></polygon><polygon points="41.15,38.849 19.316,17.015 17.313,19.019 38.762,40.468 42.42,42.046  " fill="#ffbf5e" data-fill-palette-color="accent"></polygon><polygon points="43.583,42.548 42.42,42.046 42.913,43.286 43.583,43.286  " fill="#ffbf5e" data-fill-palette-color="accent"></polygon><polygon points="46.418,46.857 47.579,47.359 47.087,46.119 46.418,46.119  " fill="#ffbf5e" data-fill-palette-color="accent"></polygon><polygon points="50.855,40.853 72.688,19.02 70.684,17.016 49.236,38.463 47.657,42.123  " fill="#ffbf5e" data-fill-palette-color="accent"></polygon><polygon points="39.146,48.554 17.313,70.387 19.317,72.391 40.765,50.943 42.344,47.283  " fill="#ffbf5e" data-fill-palette-color="accent"></polygon><polygon points="47.155,43.286 47.657,42.123 46.418,42.615 46.418,43.286  " fill="#ffbf5e" data-fill-palette-color="accent"></polygon><polygon points="42.846,46.119 42.344,47.283 43.583,46.791 43.583,46.119  " fill="#ffbf5e" data-fill-palette-color="accent"></polygon><polygon points="82.738,43.286 52.409,43.286 48.704,44.757 51.861,46.12 82.738,46.12  " fill="#ffbf5e" data-fill-palette-color="accent"></polygon><polygon points="38.139,43.286 7.261,43.286 7.261,46.119 37.596,46.119 41.298,44.649  " fill="#ffbf5e" data-fill-palette-color="accent"></polygon><polygon points="42.475,44.182 41.298,44.649 42.522,45.177 42.997,44.703  " fill="#ffbf5e" data-fill-palette-color="accent"></polygon><polygon points="47.005,44.704 47.526,45.225 48.704,44.757 47.479,44.229  " fill="#ffbf5e" data-fill-palette-color="accent"></polygon><polygon points="42.913,43.286 41.579,43.286 42.475,44.182 43.16,43.909  " fill="#ffbf5e" data-fill-palette-color="accent"></polygon><polygon points="47.087,46.119 48.421,46.12 47.526,45.225 46.84,45.498  " fill="#ffbf5e" data-fill-palette-color="accent"></polygon><polygon points="43.583,43.741 43.16,43.909 43.339,44.36 43.583,44.116  " fill="#ffbf5e" data-fill-palette-color="accent"></polygon><polygon points="46.418,45.666 46.84,45.498 46.661,45.047 46.418,45.29  " fill="#ffbf5e" data-fill-palette-color="accent"></polygon><polygon points="42.522,45.177 41.58,46.119 42.846,46.119 43.138,45.443  " fill="#ffbf5e" data-fill-palette-color="accent"></polygon><polygon points="47.479,44.229 48.422,43.286 47.155,43.286 46.863,43.963  " fill="#ffbf5e" data-fill-palette-color="accent"></polygon><polygon points="43.318,45.025 43.138,45.443 43.583,45.635 43.583,45.29  " fill="#ffbf5e" data-fill-palette-color="accent"></polygon><polygon points="46.683,44.382 46.863,43.963 46.418,43.771 46.418,44.117  " fill="#ffbf5e" data-fill-palette-color="accent"></polygon><polygon points="46.534,44.727 46.661,45.047 47.005,44.704 46.683,44.382  " fill="#ffbf5e" data-fill-palette-color="accent"></polygon><polygon points="43.339,44.36 42.997,44.703 43.318,45.025 43.467,44.681  " fill="#ffbf5e" data-fill-palette-color="accent"></polygon><polygon points="46.418,44.996 46.534,44.727 46.418,44.435  " fill="#ffbf5e" data-fill-palette-color="accent"></polygon><polygon points="43.467,44.681 43.583,44.976 43.583,44.41  " fill="#ffbf5e" data-fill-palette-color="accent"></polygon><polygon points="46.418,37.841 46.418,6.964 43.583,6.964 43.583,37.298 45.054,41.001  " fill="#ffbf5e" data-fill-palette-color="accent"></polygon><polygon points="43.583,51.565 43.583,82.441 46.418,82.441 46.418,52.112 44.946,48.407  " fill="#ffbf5e" data-fill-palette-color="accent"></polygon><polygon points="45.521,42.178 45.054,41.001 44.526,42.225 45,42.699  " fill="#ffbf5e" data-fill-palette-color="accent"></polygon><polygon points="44.479,47.229 44.946,48.407 45.475,47.182 45.001,46.707  " fill="#ffbf5e" data-fill-palette-color="accent"></polygon><polygon points="44.526,42.225 43.583,41.282 43.583,42.548 44.261,42.841  " fill="#ffbf5e" data-fill-palette-color="accent"></polygon><polygon points="45.475,47.182 46.418,48.125 46.418,46.857 45.741,46.565  " fill="#ffbf5e" data-fill-palette-color="accent"></polygon><polygon points="45.323,46.386 45.741,46.565 45.933,46.119 45.589,46.119  " fill="#ffbf5e" data-fill-palette-color="accent"></polygon><polygon points="44.679,43.021 44.261,42.841 44.069,43.286 44.414,43.286  " fill="#ffbf5e" data-fill-palette-color="accent"></polygon><polygon points="43.583,46.791 43.583,48.125 44.479,47.229 44.207,46.544  " fill="#ffbf5e" data-fill-palette-color="accent"></polygon><polygon points="46.418,42.615 46.418,41.281 45.521,42.178 45.794,42.863  " fill="#ffbf5e" data-fill-palette-color="accent"></polygon><polygon points="44.038,46.119 44.207,46.544 44.658,46.364 44.413,46.119  " fill="#ffbf5e" data-fill-palette-color="accent"></polygon><polygon points="45.962,43.286 45.794,42.863 45.343,43.042 45.587,43.286  " fill="#ffbf5e" data-fill-palette-color="accent"></polygon><polygon points="44.658,46.364 45.001,46.707 45.323,46.386 44.979,46.237  " fill="#ffbf5e" data-fill-palette-color="accent"></polygon><polygon points="45.343,43.042 45,42.699 44.679,43.021 45.023,43.169  " fill="#ffbf5e" data-fill-palette-color="accent"></polygon><polygon points="44.979,46.237 45.274,46.119 44.707,46.119  " fill="#ffbf5e" data-fill-palette-color="accent"></polygon><polygon points="45.023,43.169 44.729,43.286 45.293,43.286  " fill="#ffbf5e" data-fill-palette-color="accent"></polygon><polygon points="44.069,43.286 43.583,43.286 43.583,43.741 43.932,43.603  " fill="#ffbf5e" data-fill-palette-color="accent"></polygon><polygon points="45.933,46.119 46.418,46.119 46.418,45.666 46.069,45.804  " fill="#ffbf5e" data-fill-palette-color="accent"></polygon><polygon points="46.069,45.804 46.194,45.514 45.796,45.913  " fill="#ffbf5e" data-fill-palette-color="accent"></polygon><polygon points="43.932,43.603 43.807,43.893 44.205,43.494  " fill="#ffbf5e" data-fill-palette-color="accent"></polygon><polygon points="43.583,45.635 43.583,46.119 44.038,46.119 43.899,45.771  " fill="#ffbf5e" data-fill-palette-color="accent"></polygon><polygon points="46.418,43.771 46.418,43.286 45.962,43.286 46.1,43.634  " fill="#ffbf5e" data-fill-palette-color="accent"></polygon><polygon points="43.899,45.771 44.19,45.896 43.791,45.497  " fill="#ffbf5e" data-fill-palette-color="accent"></polygon><polygon points="46.1,43.634 45.81,43.509 46.209,43.908  " fill="#ffbf5e" data-fill-palette-color="accent"></polygon><polygon points="46.418,45.29 46.418,44.996 46.194,45.514  " fill="#ffbf5e" data-fill-palette-color="accent"></polygon><polygon points="43.583,44.116 43.583,44.41 43.807,43.893  " fill="#ffbf5e" data-fill-palette-color="accent"></polygon><polygon points="45.587,43.286 45.293,43.286 45.81,43.509  " fill="#ffbf5e" data-fill-palette-color="accent"></polygon><polygon points="44.413,46.119 44.707,46.119 44.19,45.896  " fill="#ffbf5e" data-fill-palette-color="accent"></polygon><polygon points="45.589,46.119 45.796,45.913 45.274,46.119  " fill="#ffbf5e" data-fill-palette-color="accent"></polygon><polygon points="44.414,43.286 44.205,43.494 44.729,43.286  " fill="#ffbf5e" data-fill-palette-color="accent"></polygon><polygon points="43.583,45.29 43.791,45.497 43.583,44.976  " fill="#ffbf5e" data-fill-palette-color="accent"></polygon><polygon points="46.418,44.117 46.209,43.908 46.418,44.435  " fill="#ffbf5e" data-fill-palette-color="accent"></polygon></g></svg></g></svg></g><g></g></svg></g><defs></defs></svg><rect width="192.44777692556536" height="247.2" fill="none" stroke="none" visibility="hidden"></rect></g></svg></g></svg>